<svg width="19" height="19" viewBox="0 0 19 19" fill="none" xmlns="http://www.w3.org/2000/svg">
<path d="M4.28214 4.29983L17.856 4.33379L15.903 12.5418C15.6494 13.6074 14.696 14.3587 13.6006 14.356L8.72992 14.3438C7.65877 14.3411 6.7237 13.6176 6.45221 12.5815L4.28214 4.29983ZM4.28214 4.29983L3.40575 0.756644L0.75 0.75" stroke="#595667" stroke-width="1.5" stroke-linecap="round" stroke-linejoin="round"/>
<path d="M6.90268 18.7655C7.55456 18.7671 8.08434 18.24 8.08597 17.5881C8.0876 16.9362 7.56047 16.4064 6.90859 16.4048C6.25671 16.4032 5.72693 16.9303 5.7253 17.5822C5.72367 18.2341 6.2508 18.7638 6.90268 18.7655Z" fill="#595667"/>
<path d="M15.1657 18.786C15.8176 18.7876 16.3474 18.2605 16.349 17.6086C16.3506 16.9567 15.8235 16.4269 15.1716 16.4253C14.5197 16.4237 13.9899 16.9508 13.9883 17.6027C13.9867 18.2546 14.5138 18.7843 15.1657 18.786Z" fill="#595667"/>
</svg>
