<svg width="21" height="21" viewBox="0 0 21 21" fill="none" xmlns="http://www.w3.org/2000/svg">
<path d="M17.3375 10.0432C17.3274 14.0818 14.0453 17.3475 10.0067 17.3374L10.0025 19.0249C14.973 19.0373 19.0125 15.018 19.025 10.0474L17.3375 10.0432ZM10.0067 17.3374C5.96813 17.3273 2.70241 14.0453 2.71251 10.0066L1.02502 10.0024C1.01258 14.973 5.03192 19.0125 10.0025 19.0249L10.0067 17.3374ZM2.71251 10.0066C2.72261 5.96807 6.00471 2.70235 10.0433 2.71245L10.0475 1.02496C5.07695 1.01252 1.03745 5.03186 1.02502 10.0024L2.71251 10.0066ZM10.0433 2.71245C14.0819 2.72255 17.3476 6.00465 17.3375 10.0432L19.025 10.0474C19.0374 5.07689 15.0181 1.03739 10.0475 1.02496L10.0433 2.71245Z" fill="#595667"/>
<path d="M11.7181 7.77926C11.7158 8.7112 10.9583 9.46486 10.0264 9.46253L10.0222 11.15C11.8862 11.1547 13.4009 9.64748 13.4056 7.78348L11.7181 7.77926ZM10.0264 9.46253C9.09445 9.4602 8.34079 8.70276 8.34312 7.77081L6.65563 7.76659C6.65096 9.6306 8.15817 11.1454 10.0222 11.15L10.0264 9.46253ZM8.34312 7.77081C8.34545 6.83883 9.10289 6.08521 10.0348 6.08754L10.0391 4.40004C8.17505 4.39538 6.66029 5.90264 6.65563 7.76659L8.34312 7.77081ZM10.0348 6.08754C10.9668 6.08987 11.7204 6.84727 11.7181 7.77926L13.4056 7.78348C13.4103 5.91953 11.9031 4.40471 10.0391 4.40004L10.0348 6.08754Z" fill="#595667"/>
<path d="M3.96177 15.0944C3.66246 15.4515 3.70935 15.9838 4.0665 16.283C4.42366 16.5824 4.95582 16.5355 5.25513 16.1783L3.96177 15.0944ZM14.7648 16.2021C15.0623 16.5607 15.5943 16.6103 15.9529 16.3128C16.3115 16.0153 16.3611 15.4833 16.0635 15.1247L14.7648 16.2021ZM5.25513 16.1783C6.39488 14.8184 8.10488 13.9576 10.0156 13.9624L10.0198 12.2749C7.5874 12.2688 5.40932 13.3671 3.96177 15.0944L5.25513 16.1783ZM10.0156 13.9624C11.9262 13.9672 13.6319 14.8365 14.7648 16.2021L16.0635 15.1247C14.6247 13.3902 12.4522 12.281 10.0198 12.2749L10.0156 13.9624Z" fill="#595667"/>
</svg>
